<?xml version="1.0" encoding="UTF-8"?>
<svg id="Layer_1" xmlns="http://www.w3.org/2000/svg" version="1.1" viewBox="0 0 64 64">
  <!-- Generator: Adobe Illustrator 29.5.1, SVG Export Plug-In . SVG Version: 2.1.0 Build 141)  -->
  <defs>
    <style>
      .st0 {
        fill: #ff7a00;
      }
    </style>
  </defs>
  <rect class="st0" x="10.45" y="31.6" width="13.66" height="23.59" rx="4.21" ry="4.21"/>
  <rect class="st0" x="25.17" y="23.97" width="13.66" height="31.22" rx="4.21" ry="4.21"/>
  <rect class="st0" x="39.88" y="37.9" width="13.66" height="17.28" rx="4.21" ry="4.21"/>
  <path class="st0" d="M32.71,5.23l2.8,4.52,5.16,1.27c.6.15.83.87.44,1.34l-3.43,4.06.39,5.3c.04.62-.57,1.06-1.14.83l-4.92-2.01-4.92,2.01c-.57.23-1.19-.22-1.14-.83l.39-5.3-3.43-4.06c-.4-.47-.16-1.2.44-1.34l5.16-1.27,2.8-4.52c.33-.52,1.09-.52,1.41,0h0Z"/>
</svg>