<?xml version="1.0" encoding="UTF-8"?>
<svg id="Layer_1" xmlns="http://www.w3.org/2000/svg" version="1.1" viewBox="0 0 64 64">
  <!-- Generator: Adobe Illustrator 29.5.1, SVG Export Plug-In . SVG Version: 2.1.0 Build 141)  -->
  <defs>
    <style>
      .st0 {
        fill: #010101;
      }

      .st1 {
        fill: #6d6e71;
        font-family: ArialRoundedMTBold, 'Arial Rounded MT Bold';
        font-size: 64px;
      }

      .st1, .st2 {
        display: none;
      }

      .st3 {
        fill: #f5a621;
      }
    </style>
  </defs>
  <g class="st2">
    <g>
      <path class="st0" d="M55.85,30.49h-12.43v-8.67c0-3.62-2.95-6.57-6.57-6.57h-9.01c-3.62,0-6.57,2.95-6.57,6.57v2.52h-12.43c-3.62,0-6.57,2.95-6.57,6.57v20.15c0,.87.7,1.57,1.57,1.57h57c.87,0,1.57-.7,1.57-1.57v-14c0-3.62-2.95-6.57-6.57-6.57ZM21.28,49.49H5.42v-18.57c0-1.89,1.54-3.42,3.42-3.42h12.43v22ZM40.28,49.49h-15.85v-27.67c0-1.89,1.54-3.42,3.42-3.42h9.01c1.89,0,3.42,1.54,3.42,3.42v27.67ZM59.28,49.49h-15.85v-15.85h12.43c1.89,0,3.42,1.54,3.42,3.42v12.43Z"/>
      <path class="st0" d="M32.35,12.38c.87,0,1.57-.7,1.57-1.57v-4.14c0-.87-.7-1.57-1.57-1.57s-1.57.7-1.57,1.57v4.14c0,.87.7,1.57,1.57,1.57Z"/>
      <path class="st0" d="M11.28,20.62c.87,0,1.57-.7,1.57-1.57v-4.14c0-.87-.7-1.57-1.57-1.57s-1.57.7-1.57,1.57v4.14c0,.87.7,1.57,1.57,1.57Z"/>
      <path class="st0" d="M15.67,20.62c.87,0,1.57-.7,1.57-1.57v-4.14c0-.87-.7-1.57-1.57-1.57s-1.57.7-1.57,1.57v4.14c0,.87.7,1.57,1.57,1.57Z"/>
      <path class="st0" d="M46.87,27.25c.87,0,1.57-.7,1.57-1.57v-4.14c0-.87-.7-1.57-1.57-1.57s-1.57.7-1.57,1.57v4.14c0,.87.7,1.57,1.57,1.57Z"/>
      <path class="st0" d="M51.26,27.25c.87,0,1.57-.7,1.57-1.57v-4.14c0-.87-.7-1.57-1.57-1.57s-1.57.7-1.57,1.57v4.14c0,.87.7,1.57,1.57,1.57Z"/>
      <path class="st0" d="M55.47,27.25c.87,0,1.57-.7,1.57-1.57v-4.14c0-.87-.7-1.57-1.57-1.57s-1.57.7-1.57,1.57v4.14c0,.87.7,1.57,1.57,1.57Z"/>
    </g>
  </g>
  <text class="st1" transform="translate(13.38 55)"><tspan x="0" y="0">?</tspan></text>
  <rect class="st3" x="10.45" y="31.6" width="13.66" height="23.59" rx="4.21" ry="4.21"/>
  <rect class="st3" x="25.17" y="23.97" width="13.66" height="31.22" rx="4.21" ry="4.21"/>
  <rect class="st3" x="39.88" y="37.9" width="13.66" height="17.28" rx="4.21" ry="4.21"/>
  <path class="st3" d="M32.71,5.23l2.8,4.52,5.16,1.27c.6.15.83.87.44,1.34l-3.43,4.06.39,5.3c.04.62-.57,1.06-1.14.83l-4.92-2.01-4.92,2.01c-.57.23-1.19-.22-1.14-.83l.39-5.3-3.43-4.06c-.4-.47-.16-1.2.44-1.34l5.16-1.27,2.8-4.52c.33-.52,1.09-.52,1.41,0Z"/>
</svg>