<?xml version="1.0" encoding="UTF-8"?>
<svg id="Layer_1" data-name="Layer 1" xmlns="http://www.w3.org/2000/svg" viewBox="0 0 75.11 91.92">
  <defs>
    <style>
      .cls-1 {
        fill: #db1f26;
      }

      .cls-1, .cls-2, .cls-3 {
        stroke: #808285;
        stroke-dasharray: 12;
        stroke-linecap: round;
        stroke-linejoin: round;
        stroke-width: 2px;
      }

      .cls-2 {
        fill: #231f20;
      }

      .cls-3 {
        fill: #ffcd05;
      }
    </style>
  </defs>
  <path class="cls-2" d="M2.3,26.92c-.9,0-1.3-.4-1.3-1.3V2.3c0-.9.4-1.3,1.3-1.3h12.13c6.05,0,8.85,2.34,8.85,7.34v11.23c0,5-2.81,7.34-8.85,7.34H2.3ZM9.17,20.11h4.28c1.15,0,1.69-.54,1.69-1.76v-8.75c0-1.19-.54-1.73-1.69-1.73h-4.28v12.24Z"/>
  <path class="cls-2" d="M29.15,26.92c-.9,0-1.3-.4-1.3-1.3V2.3c0-.9.4-1.3,1.3-1.3h16.7c.9,0,1.3.4,1.3,1.3v4.21c0,.9-.4,1.3-1.3,1.3h-9.93v2.77h7.02c.9,0,1.3.4,1.3,1.3v3.85c0,.9-.4,1.3-1.3,1.3h-7.02v3.1h9.93c.9,0,1.3.4,1.3,1.3v4.21c0,.9-.4,1.3-1.3,1.3h-16.7Z"/>
  <path class="cls-2" d="M52.69,26.92c-.9,0-1.3-.4-1.3-1.3V2.3c0-.9.4-1.3,1.3-1.3h11.99c5.4,0,7.09,2.45,7.09,6.01v1.66c0,2.02-.5,3.46-2.02,4.1,2.63.29,4.36,2.2,4.36,5.22v7.63c0,.9-.4,1.3-1.3,1.3h-5.58c-.9,0-1.3-.4-1.3-1.3v-5.51c0-1.08-.36-1.55-1.37-1.55h-5.04v7.06c0,.9-.4,1.3-1.3,1.3h-5.54ZM59.53,12.09h2.7c1.26,0,1.58-.72,1.58-1.69v-1.22c0-.97-.32-1.69-1.58-1.69h-2.7v4.61Z"/>
  <path class="cls-1" d="M4.78,58.92c-.9,0-1.3-.4-1.3-1.3v-23.32c0-.9.4-1.3,1.3-1.3h12.13c6.05,0,8.85,2.34,8.85,7.34v11.23c0,5-2.81,7.34-8.85,7.34H4.78ZM11.66,52.11h4.28c1.15,0,1.69-.54,1.69-1.76v-8.75c0-1.19-.54-1.73-1.69-1.73h-4.28v12.24Z"/>
  <path class="cls-1" d="M29.76,57.62v-4.28c0-.9.4-1.3,1.3-1.3h3.56v-12.09h-3.56c-.9,0-1.3-.4-1.3-1.3v-4.36c0-.9.4-1.3,1.3-1.3h15.33c.9,0,1.3.4,1.3,1.3v4.36c0,.9-.4,1.3-1.3,1.3h-3.49v12.09h3.49c.9,0,1.3.4,1.3,1.3v4.28c0,.9-.4,1.3-1.3,1.3h-15.33c-.9,0-1.3-.4-1.3-1.3Z"/>
  <path class="cls-1" d="M53.42,58.92c-.9,0-1.3-.4-1.3-1.3v-23.32c0-.9.4-1.3,1.3-1.3h16.7c.9,0,1.3.4,1.3,1.3v4.21c0,.9-.4,1.3-1.3,1.3h-9.93v2.77h7.02c.9,0,1.3.4,1.3,1.3v3.85c0,.9-.4,1.3-1.3,1.3h-7.02v3.1h9.93c.9,0,1.3.4,1.3,1.3v4.21c0,.9-.4,1.3-1.3,1.3h-16.7Z"/>
  <path class="cls-3" d="M2.6,90.92c-.9,0-1.3-.4-1.3-1.3v-23.33c0-.9.4-1.3,1.3-1.3h12.13c6.05,0,8.85,2.34,8.85,7.34v11.23c0,5-2.81,7.34-8.85,7.34H2.6ZM9.48,84.11h4.28c1.15,0,1.69-.54,1.69-1.76v-8.75c0-1.19-.54-1.73-1.69-1.73h-4.28v12.24Z"/>
  <path class="cls-3" d="M34.21,90.92h-5.29c-.9,0-1.3-.4-1.3-1.3v-9.5c0-1.44.43-3.24,1.4-5.76l3.13-8.17c.29-.83.86-1.19,1.84-1.19h9.68c.94,0,1.51.36,1.8,1.19l3.13,8.17c.97,2.52,1.4,4.32,1.4,5.76v9.5c0,.9-.4,1.3-1.3,1.3h-5.44c-.97,0-1.4-.4-1.4-1.3v-5.04h-6.37v5.04c0,.9-.4,1.3-1.3,1.3ZM35.86,78.03h5.65l-1.69-5.47c-.18-.43-.4-.61-.68-.61h-.9c-.29,0-.5.18-.68.61l-1.69,5.47Z"/>
  <path class="cls-3" d="M55.09,90.92c-.9,0-1.3-.4-1.3-1.3v-4.21c0-.9.4-1.3,1.3-1.3h9.68c.61,0,.94-.47.94-1.04,0-.83-.32-1.15-.94-1.22l-5.4-.76c-3.38-.5-5.58-1.94-5.58-5.97v-3.78c0-4.1,2.77-6.33,7.45-6.33h10.08c.9,0,1.3.4,1.3,1.3v4.28c0,.9-.4,1.3-1.3,1.3h-8.39c-.61,0-.97.43-.97,1.08s.36,1.08.97,1.15l5.36.72c3.38.5,5.62,1.94,5.62,5.98v3.78c0,4.1-2.81,6.33-7.45,6.33h-11.37Z"/>
</svg>